HIERARCHY
ROOT Hips
{
	OFFSET -0.001795 -0.223333 0.028219
	CHANNELS 6 Xposition Yposition Zposition Zrotation Yrotation Xrotation 
	JOINT LeftUpLeg
	{
		OFFSET 0.069520 -0.091406 -0.006815
		CHANNELS 3 Zrotation Yrotation Xrotation
		JOINT LeftLeg
		{
			OFFSET 0.034277 -0.375199 -0.004496
			CHANNELS 3 Zrotation Yrotation Xrotation
			JOINT LeftFoot
			{
				OFFSET -0.013596 -0.397961 -0.043693
				CHANNELS 3 Zrotation Yrotation Xrotation
				JOINT LeftToe
				{
					OFFSET 0.026358 -0.055791 0.119288
					CHANNELS 3 Zrotation Yrotation Xrotation
					End Site
					{
						OFFSET 0.000000 0.000000 0.000000
					}
				}
			}
		}
	}
	JOINT RightUpLeg
	{
		OFFSET -0.067670 -0.090522 -0.004320
		CHANNELS 3 Zrotation Yrotation Xrotation
		JOINT RightLeg
		{
			OFFSET -0.038290 -0.382569 -0.008850
			CHANNELS 3 Zrotation Yrotation Xrotation
			JOINT RightFoot
			{
				OFFSET 0.015774 -0.398415 -0.042312
				CHANNELS 3 Zrotation Yrotation Xrotation
				JOINT RightToe
				{
					OFFSET -0.025372 -0.048144 0.123348
					CHANNELS 3 Zrotation Yrotation Xrotation
					End Site
					{
						OFFSET 0.000000 0.000000 0.000000
					}
				}
			}
		}
	}
	JOINT Spine
	{
		OFFSET -0.002533 0.108963 -0.026696
		CHANNELS 3 Zrotation Yrotation Xrotation
		JOINT Spine1
		{
			OFFSET 0.005487 0.135180 0.001092
			CHANNELS 3 Zrotation Yrotation Xrotation
			JOINT Spine2
			{
				OFFSET 0.001457 0.052922 0.025425
				CHANNELS 3 Zrotation Yrotation Xrotation
				JOINT Neck
				{
					OFFSET -0.002778 0.213870 -0.042857
					CHANNELS 3 Zrotation Yrotation Xrotation
					JOINT Head
					{
						OFFSET 0.005152 0.064970 0.051349
						CHANNELS 3 Zrotation Yrotation Xrotation
						End Site
						{
							OFFSET 0.000000 0.000000 0.000000
						}
					}
				}
				JOINT LeftShoulder
				{
					OFFSET 0.078845 0.121749 -0.034090
					CHANNELS 3 Zrotation Yrotation Xrotation
					JOINT LeftArm
					{
						OFFSET 0.090977 0.030469 -0.008868
						CHANNELS 3 Zrotation Yrotation Xrotation
						JOINT LeftForeArm
						{
							OFFSET 0.259612 -0.012772 -0.027456
							CHANNELS 3 Zrotation Yrotation Xrotation
							JOINT LeftHand
							{
								OFFSET 0.249234 0.008986 -0.001171
								CHANNELS 3 Zrotation Yrotation Xrotation
								End Site
								{
									OFFSET 0.000000 0.000000 0.000000
								}
							}
						}
					}
				}
				JOINT RightShoulder
				{
					OFFSET -0.081759 0.118833 -0.038615
					CHANNELS 3 Zrotation Yrotation Xrotation
					JOINT RightArm
					{
						OFFSET -0.096012 0.032551 -0.009143
						CHANNELS 3 Zrotation Yrotation Xrotation
						JOINT RightForeArm
						{
							OFFSET -0.253742 -0.013329 -0.021401
							CHANNELS 3 Zrotation Yrotation Xrotation
							JOINT RightHand
							{
								OFFSET -0.255298 0.007772 -0.005559
								CHANNELS 3 Zrotation Yrotation Xrotation
								End Site
								{
									OFFSET 0.000000 0.000000 0.000000
								}
							}
						}
					}
				}
			}
		}
	}
}
MOTION
Frames: 14
Frame Time: 0.050000
0.002153 0.993287 -0.008953 -0.601904 -20.771581 -1.338489 8.970062 0.527059 -10.976553 2.592874 0.655945 -13.778983 23.451953 29.586725 124.338879 0.000000 0.000000 0.000000 -4.347057 1.512658 -15.527376 1.985269 -0.119758 -9.525023 -28.805867 -12.219199 123.252548 0.000000 0.000000 0.000000 -0.220497 -0.182085 13.147272 5.648004 4.432764 -54.268325 -3.036046 7.972625 57.486928 -0.349121 6.254683 -103.982999 0.000000 0.000000 0.000000 -23.170688 -21.942245 14.602101 -18.197979 -36.418345 -1.888327 -27.004307 14.029164 -3.718808 0.000000 0.000000 0.000000 14.088769 10.765203 4.158373 46.159786 -15.813862 -15.756862 -94.065211 -55.563231 58.929462 0.000000 0.000000 0.000000 
0.003239 0.993469 -0.010267 -0.852518 -20.734624 -1.200756 9.280463 0.574109 -10.915528 2.539162 0.666927 -13.883994 21.951044 29.518392 123.502823 0.000000 0.000000 0.000000 -4.293414 1.537748 -15.713761 2.059927 -0.120582 -9.491820 -27.699145 -12.092177 123.419709 0.000000 0.000000 0.000000 -0.693857 -0.120894 13.314051 5.491710 4.441061 -54.435840 -2.275828 8.442305 57.626000 -1.964277 5.796802 -104.581836 0.000000 0.000000 0.000000 -22.692521 -23.282974 14.948790 -16.899213 -37.302112 -1.944093 -25.408050 13.491381 -3.407943 0.000000 0.000000 0.000000 14.573064 11.788968 4.786907 46.940621 -15.777871 -16.028126 -94.472127 -56.907655 61.105308 0.000000 0.000000 0.000000 
0.004872 0.992998 -0.011134 -0.929283 -20.498737 -1.331448 9.355337 0.565244 -10.455133 2.278311 0.741286 -14.581140 22.245662 29.394896 123.489555 0.000000 0.000000 0.000000 -4.575413 1.454548 -15.181880 2.195397 -0.100121 -10.363585 -26.387486 -11.828349 124.193195 0.000000 0.000000 0.000000 -0.940908 -0.079562 13.855272 4.797037 4.358189 -54.487488 -1.932813 8.020224 57.558130 -3.758912 5.643063 -105.565357 0.000000 0.000000 0.000000 -22.148835 -24.030961 15.162577 -15.531507 -38.405609 -2.016630 -25.357318 13.196352 -3.333812 0.000000 0.000000 0.000000 14.706137 12.846602 5.237304 47.428944 -15.082363 -15.893249 -90.245409 -58.312798 58.906652 0.000000 0.000000 0.000000 
0.007047 0.992839 -0.011437 -1.210359 -20.501922 -1.519683 9.526324 0.584559 -9.969893 2.276229 0.777331 -14.928482 22.183596 29.370526 123.467817 0.000000 0.000000 0.000000 -4.744273 1.396246 -14.756787 2.638710 -0.075160 -10.665447 -25.461547 -11.738241 124.277711 0.000000 0.000000 0.000000 -1.176382 -0.038684 14.244967 4.846407 4.246256 -54.047876 -1.508909 8.799485 57.126208 -4.839981 5.166181 -105.987931 0.000000 0.000000 0.000000 -22.441170 -24.960402 15.507974 -14.440681 -38.843956 -2.138176 -24.824474 13.265662 -3.314065 0.000000 0.000000 0.000000 15.745174 13.971724 5.978513 47.950596 -14.388561 -15.736528 -88.822541 -60.662979 60.430194 0.000000 0.000000 0.000000 
0.009401 0.993225 -0.011454 -1.359253 -19.987398 -1.626067 9.442125 0.548066 -9.792906 2.330823 0.805496 -15.236334 21.776709 29.157901 123.299809 0.000000 0.000000 0.000000 -4.929170 1.343107 -14.446868 2.929718 -0.061340 -11.093152 -26.159775 -11.971663 124.738236 0.000000 0.000000 0.000000 -1.313896 -0.021376 14.596090 4.693563 4.163868 -54.137108 -1.315402 9.007468 57.146036 -5.390396 4.874232 -106.362926 0.000000 0.000000 0.000000 -22.780488 -25.359093 15.660700 -14.386811 -39.476859 -2.135382 -24.179297 12.976314 -3.166916 0.000000 0.000000 0.000000 16.455759 14.593628 6.456027 48.729249 -14.038667 -15.845208 -84.030052 -62.420266 58.407171 0.000000 0.000000 0.000000 
0.011476 0.993265 -0.011480 -1.503526 -19.433719 -1.937751 9.368565 0.513862 -9.463206 2.168705 0.815675 -15.385269 22.199303 28.889142 122.992237 0.000000 0.000000 0.000000 -5.116091 1.241273 -13.660686 3.214957 -0.052396 -11.372061 -26.676582 -12.533358 124.119045 0.000000 0.000000 0.000000 -1.779499 0.051469 15.176581 4.200085 4.206297 -54.903123 -0.804209 8.421109 57.876709 -7.245109 4.565021 -106.613989 0.000000 0.000000 0.000000 -23.222261 -25.539477 15.916141 -13.940465 -40.358286 -2.253763 -23.790286 13.036536 -3.116241 0.000000 0.000000 0.000000 15.866365 14.684359 6.467760 49.489330 -14.224680 -16.252411 -80.850777 -63.062794 56.479531 0.000000 0.000000 0.000000 
0.013030 0.993143 -0.011180 -1.936416 -18.669403 -1.974636 9.399666 0.491184 -9.457900 2.283494 0.805200 -15.362705 22.768734 28.548120 122.656295 0.000000 0.000000 0.000000 -4.806787 1.172502 -12.942891 3.182273 -0.057159 -11.821760 -27.630171 -13.185856 123.665473 0.000000 0.000000 0.000000 -1.921321 0.054298 15.259304 3.901003 4.113422 -55.123913 -0.902981 8.032666 58.348402 -7.432152 4.492579 -107.184288 0.000000 0.000000 0.000000 -22.928161 -25.461964 15.754406 -13.771289 -41.169435 -2.297265 -24.426273 13.450315 -3.282303 0.000000 0.000000 0.000000 15.785289 14.633417 6.482606 49.787027 -15.041728 -16.725547 -79.262595 -62.130404 54.432715 0.000000 0.000000 0.000000 
0.014301 0.993480 -0.010303 -2.068425 -18.521238 -2.142796 9.219608 0.455212 -9.031119 2.426565 0.840844 -15.711558 23.667524 28.479475 122.628942 0.000000 0.000000 0.000000 -4.752879 1.131408 -12.532272 3.371175 -0.051838 -11.835393 -28.748271 -13.620060 122.991186 0.000000 0.000000 0.000000 -2.186871 0.090998 15.360069 3.757452 4.055356 -54.996215 -0.834965 8.204721 58.277085 -7.881357 4.327147 -107.499569 0.000000 0.000000 0.000000 -22.871406 -25.496974 15.697525 -13.418199 -41.937315 -2.359021 -24.857569 13.969206 -3.458304 0.000000 0.000000 0.000000 15.100317 14.109975 6.233251 49.986094 -16.586075 -17.409594 -77.971488 -60.517266 52.011786 0.000000 0.000000 0.000000 
0.015638 0.993136 -0.008874 -2.433813 -18.122293 -2.135374 9.252337 0.445739 -8.963827 2.533519 0.861156 -15.943198 25.349963 28.329581 123.338907 0.000000 0.000000 0.000000 -4.285561 1.091555 -11.974808 2.928460 -0.074900 -12.086659 -28.871185 -13.967827 122.507514 0.000000 0.000000 0.000000 -2.389249 0.101758 15.190214 3.706938 4.091232 -55.512642 -0.978706 7.929769 59.196663 -8.141535 4.274969 -107.950793 0.000000 0.000000 0.000000 -22.908401 -24.977552 15.463007 -13.042946 -42.608864 -2.521580 -24.975619 14.603249 -3.628136 0.000000 0.000000 0.000000 14.840159 13.565026 5.986525 49.478505 -17.931600 -17.881794 -78.606707 -58.659124 50.764489 0.000000 0.000000 0.000000 
0.017267 0.993278 -0.007108 -2.667562 -18.218185 -2.329037 9.155680 0.436172 -8.636006 2.627805 0.835614 -15.692815 26.443383 28.349412 122.971838 0.000000 0.000000 0.000000 -4.019150 1.073553 -11.692041 3.145593 -0.070821 -11.837544 -30.843116 -14.410331 121.736607 0.000000 0.000000 0.000000 -2.450374 0.101585 14.990476 4.114298 4.040390 -55.110714 -0.866226 8.802665 59.391173 -6.355514 4.308283 -108.247532 0.000000 0.000000 0.000000 -22.822577 -24.636718 15.117735 -13.027235 -43.034949 -2.563578 -24.658544 14.844529 -3.647729 0.000000 0.000000 0.000000 14.705050 12.835975 5.789776 48.826648 -19.046021 -18.104601 -76.848306 -57.366573 48.382229 0.000000 0.000000 0.000000 
0.019187 0.992821 -0.005696 -2.804233 -17.720997 -2.147790 8.957715 0.385002 -8.458171 2.305909 0.872735 -16.108072 28.127679 28.150553 122.060152 0.000000 0.000000 0.000000 -4.292094 1.023268 -11.300649 3.382697 -0.057703 -12.242140 -30.597518 -14.813136 121.292041 0.000000 0.000000 0.000000 -2.706091 0.112415 14.547788 4.368660 4.015884 -55.243454 -0.986764 8.708739 59.798097 -5.731784 4.345756 -108.315394 0.000000 0.000000 0.000000 -22.818579 -24.231801 14.863744 -13.600892 -43.452766 -2.476425 -24.504109 15.199885 -3.700845 0.000000 0.000000 0.000000 14.327781 12.775911 5.773479 47.816434 -20.110486 -18.146592 -70.402471 -56.411838 42.610075 0.000000 0.000000 0.000000 
0.020753 0.992930 -0.004606 -3.043313 -17.217184 -2.190330 8.982853 0.370951 -8.307879 2.009489 0.860498 -16.077757 28.864945 27.955163 121.142519 0.000000 0.000000 0.000000 -4.165890 0.983349 -10.884519 3.284446 -0.082392 -12.097903 -30.583274 -15.377111 120.361873 0.000000 0.000000 0.000000 -2.809996 0.110571 14.462398 4.478881 3.831944 -54.725416 -0.916574 8.842698 59.355619 -3.086350 4.629034 -108.124934 0.000000 0.000000 0.000000 -22.726546 -23.175070 14.191798 -14.864101 -44.090719 -2.182820 -23.959199 15.597204 -3.700018 0.000000 0.000000 0.000000 13.827378 12.885412 5.825914 47.262971 -20.127262 -17.841976 -64.921425 -56.924610 39.047105 0.000000 0.000000 0.000000 
0.021867 0.993403 -0.003749 -3.081052 -16.482017 -2.026642 8.604608 0.290796 -8.127617 1.796846 0.891879 -16.498741 29.959009 27.759300 119.411463 0.000000 0.000000 0.000000 -4.309296 0.965348 -10.805688 3.265391 -0.097432 -12.268683 -30.855419 -15.749758 120.485253 0.000000 0.000000 0.000000 -2.839430 0.092416 14.223557 5.095749 3.678718 -54.328685 -0.864656 9.260686 58.997832 -1.080474 4.594227 -107.517941 0.000000 0.000000 0.000000 -22.938868 -23.022025 13.935154 -15.747936 -43.998507 -1.977366 -24.023059 15.854267 -3.779633 0.000000 0.000000 0.000000 14.095515 13.102602 6.098858 46.573893 -19.891524 -17.426456 -59.690650 -58.775658 36.783671 0.000000 0.000000 0.000000 
0.022365 0.993346 -0.002928 -3.144824 -15.625079 -1.955989 8.394147 0.235838 -8.434550 1.385704 0.860907 -16.344896 32.158620 27.578553 118.768601 0.000000 0.000000 0.000000 -3.952036 0.924060 -10.297650 2.762800 -0.127892 -12.793547 -32.713408 -16.487033 120.214987 0.000000 0.000000 0.000000 -2.576863 0.026918 13.773828 4.950846 3.511375 -54.140351 -0.573408 8.974111 59.052355 1.183940 4.827346 -107.389525 0.000000 0.000000 0.000000 -22.195517 -22.262875 13.285982 -18.357178 -43.811670 -1.422398 -23.967630 16.231720 -3.811216 0.000000 0.000000 0.000000 13.632580 13.167430 6.129307 46.600363 -18.356095 -16.871082 -57.152651 -60.992373 36.628777 0.000000 0.000000 0.000000 
